<svg width="1636" height="708" viewBox="0 0 1636 708" fill="none" xmlns="http://www.w3.org/2000/svg">
<path d="M1549.74 0H86.2363C38.692 0 0 30.2706 0 67.5221V640.478C0 677.726 38.692 708 86.2363 708H1549.74C1597.3 708 1636 677.729 1636 640.478V67.5221C1636 30.2955 1597.3 0 1549.74 0ZM1588.95 640.475C1588.95 657.393 1571.35 671.174 1549.74 671.174H86.2363C64.6375 671.174 47.0401 657.393 47.0401 640.475V67.5221C47.0401 50.6043 64.6375 36.832 86.2363 36.832H1549.74C1571.35 36.832 1588.95 50.6043 1588.95 67.5221V640.475Z" fill="white"/>
<path d="M396.82 265.94C398.727 265.94 400.193 266.82 401.22 268.58C402.393 270.34 402.98 272.76 402.98 275.84C402.98 281.56 401.587 286.107 398.8 289.48C391.76 297.987 384.647 304.587 377.46 309.28C370.273 313.827 361.767 316.1 351.94 316.1C342.407 316.1 334.267 313.533 327.52 308.4C320.92 303.267 314.613 294.467 308.6 282C303.76 272.027 299.947 264.693 297.16 260C294.373 255.16 291.587 251.713 288.8 249.66C286.16 247.607 282.86 246.36 278.9 245.92C278.313 249 276.627 258.68 273.84 274.96C272.667 282.293 271.933 286.767 271.64 288.38C270.173 297.327 267.24 304.22 262.84 309.06C258.44 313.753 251.767 316.1 242.82 316.1C232.993 316.1 224.267 313.24 216.64 307.52C209.16 301.653 203.367 293.587 199.26 283.32C195.153 272.907 193.1 261.1 193.1 247.9C193.1 223.26 197.353 201.993 205.86 184.1C214.513 166.207 226.54 152.567 241.94 143.18C257.487 133.647 275.38 128.88 295.62 128.88C309.7 128.88 321.507 131.007 331.04 135.26C340.573 139.513 347.613 145.38 352.16 152.86C356.853 160.34 359.2 168.773 359.2 178.16C359.2 186.373 357.22 194.44 353.26 202.36C349.447 210.133 343.653 217.027 335.88 223.04C328.107 229.053 318.647 233.527 307.5 236.46C314.54 238.367 319.967 241.447 323.78 245.7C327.593 249.953 331.407 256.187 335.22 264.4C339.327 273.2 343.36 279.653 347.32 283.76C351.427 287.867 356.12 289.92 361.4 289.92C366.093 289.92 370.567 288.38 374.82 285.3C379.073 282.073 384.427 276.647 390.88 269.02C392.64 266.967 394.62 265.94 396.82 265.94ZM248.54 245.7C243.553 245.7 240.107 244.527 238.2 242.18C236.44 239.833 235.56 237.193 235.56 234.26C235.56 230.74 236.66 227.953 238.86 225.9C241.207 223.847 243.847 222.82 246.78 222.82H252.28C254.627 208.447 256.827 196.053 258.88 185.64C260.787 176.107 266.947 171.34 277.36 171.34C285.72 171.34 289.9 175.08 289.9 182.56C289.9 184.173 289.827 185.42 289.68 186.3L283.08 222.82C291 222.38 298.187 220.473 304.64 217.1C311.24 213.727 316.447 209.033 320.26 203.02C324.22 197.007 326.2 190.187 326.2 182.56C326.2 173.32 323.047 166.06 316.74 160.78C310.433 155.5 301.193 152.86 289.02 152.86C274.647 152.86 262.033 156.453 251.18 163.64C240.473 170.68 232.113 181.24 226.1 195.32C220.087 209.253 217.08 226.267 217.08 246.36C217.08 255.747 218.033 263.813 219.94 270.56C221.847 277.307 224.193 282.367 226.98 285.74C229.767 289.113 232.407 290.8 234.9 290.8C236.807 290.8 238.347 289.847 239.52 287.94C240.84 286.033 241.867 282.953 242.6 278.7L248.54 245.7ZM493.037 247.46C494.944 247.46 496.411 248.413 497.437 250.32C498.464 252.227 498.977 254.647 498.977 257.58C498.977 264.62 496.851 268.8 492.597 270.12C483.797 273.2 474.117 274.96 463.557 275.4C460.771 287.72 455.271 297.62 447.057 305.1C438.844 312.433 429.531 316.1 419.117 316.1C410.317 316.1 402.764 313.973 396.457 309.72C390.297 305.467 385.604 299.82 382.377 292.78C379.151 285.74 377.537 278.113 377.537 269.9C377.537 258.753 379.664 248.853 383.917 240.2C388.171 231.4 394.037 224.58 401.517 219.74C408.997 214.753 417.284 212.26 426.377 212.26C437.524 212.26 446.471 216.147 453.217 223.92C460.111 231.547 464.144 241.007 465.317 252.3C472.211 251.86 480.424 250.393 489.957 247.9C491.131 247.607 492.157 247.46 493.037 247.46ZM420.877 292.78C425.571 292.78 429.604 290.873 432.977 287.06C436.497 283.247 438.844 277.747 440.017 270.56C435.471 267.48 431.951 263.447 429.457 258.46C427.111 253.473 425.937 248.193 425.937 242.62C425.937 240.273 426.157 237.927 426.597 235.58H425.497C419.631 235.58 414.717 238.44 410.757 244.16C406.944 249.733 405.037 257.653 405.037 267.92C405.037 275.987 406.577 282.147 409.657 286.4C412.884 290.653 416.624 292.78 420.877 292.78ZM603.515 272.76C606.888 272.76 608.575 275.033 608.575 279.58C608.575 285.3 607.255 289.773 604.615 293C602.122 296.227 598.675 297.84 594.275 297.84L586.135 297.62C584.668 297.473 582.542 297.4 579.755 297.4C580.342 305.76 580.635 314.12 580.635 322.48C580.635 344.627 577.702 363.913 571.835 380.34C566.115 396.767 557.095 404.98 544.775 404.98C536.415 404.98 530.035 400.14 525.635 390.46C521.382 380.927 519.255 369.267 519.255 355.48C519.255 338.32 521.162 321.38 524.975 304.66C519.988 312.287 513.462 316.1 505.395 316.1C497.328 316.1 490.582 312.727 485.155 305.98C479.875 299.233 477.235 290.507 477.235 279.8C477.235 268.213 479.948 257.213 485.375 246.8C490.948 236.387 498.282 228.027 507.375 221.72C516.615 215.267 526.442 212.04 536.855 212.04C540.375 212.04 543.088 213.213 544.995 215.56C546.315 210.867 548.295 207.713 550.935 206.1C553.575 204.487 557.242 203.68 561.935 203.68C566.922 203.68 570.222 204.413 571.835 205.88C573.595 207.347 574.402 209.473 574.255 212.26C574.255 214.02 573.302 218.127 571.395 224.58C569.635 230.887 568.462 235.067 567.875 237.12C565.528 245.333 562.962 254.427 560.175 264.4C557.535 274.373 555.408 283.467 553.795 291.68C549.102 315.147 546.755 335.9 546.755 353.94C546.755 360.687 547.268 366.407 548.295 371.1C549.468 375.94 550.935 378.36 552.695 378.36C554.162 378.36 555.702 375.867 557.315 370.88C559.075 365.893 560.542 359.22 561.715 350.86C562.888 342.5 563.475 333.627 563.475 324.24C563.475 313.093 562.962 303.193 561.935 294.54C561.788 293.807 561.715 292.633 561.715 291.02C561.715 286.18 562.888 282.147 565.235 278.92C567.728 275.693 571.175 274.08 575.575 274.08C576.162 274.08 581.735 273.86 592.295 273.42C596.695 272.98 600.435 272.76 603.515 272.76ZM514.195 293.88C517.568 293.88 520.795 291.827 523.875 287.72C526.955 283.467 529.155 278.407 530.475 272.54L539.935 232.5C533.482 232.647 527.542 234.92 522.115 239.32C516.835 243.72 512.582 249.587 509.355 256.92C506.275 264.107 504.735 271.733 504.735 279.8C504.735 284.347 505.542 287.867 507.155 290.36C508.915 292.707 511.262 293.88 514.195 293.88ZM612.535 316.1C605.935 316.1 600.508 313.093 596.255 307.08C592.148 300.92 590.095 293.293 590.095 284.2C590.095 273.2 590.828 263.153 592.295 254.06C593.762 244.82 596.182 235.067 599.555 224.8C601.022 220.4 603.075 217.247 605.715 215.34C608.355 213.433 612.535 212.48 618.255 212.48C621.482 212.48 623.682 212.993 624.855 214.02C626.175 215.047 626.835 216.587 626.835 218.64C626.835 219.813 626.028 223.773 624.415 230.52C622.948 235.947 621.775 240.86 620.895 245.26C617.962 260.66 616.495 270.927 616.495 276.06C616.495 279.14 616.862 281.34 617.595 282.66C618.328 283.833 619.502 284.42 621.115 284.42C623.315 284.42 626.028 282.22 629.255 277.82C632.628 273.42 636.148 266.747 639.815 257.8C643.628 248.853 647.295 237.853 650.815 224.8C651.988 220.4 653.748 217.247 656.095 215.34C658.588 213.433 662.255 212.48 667.095 212.48C670.468 212.48 672.815 212.92 674.135 213.8C675.455 214.533 676.115 216 676.115 218.2C676.115 221.867 674.282 231.913 670.615 248.34C666.508 267.113 664.455 278.7 664.455 283.1C664.455 285.887 665.042 288.087 666.215 289.7C667.388 291.167 668.928 291.9 670.835 291.9C673.768 291.9 677.215 290.14 681.175 286.62C685.282 282.953 690.708 277.087 697.455 269.02C699.215 266.967 701.195 265.94 703.395 265.94C705.302 265.94 706.768 266.82 707.795 268.58C708.968 270.34 709.555 272.76 709.555 275.84C709.555 281.707 708.162 286.253 705.375 289.48C699.068 297.253 692.248 303.633 684.915 308.62C677.728 313.607 669.515 316.1 660.275 316.1C653.235 316.1 648.028 313.387 644.655 307.96C641.428 302.533 639.815 294.907 639.815 285.08C637.322 295.053 633.582 302.753 628.595 308.18C623.608 313.46 618.255 316.1 612.535 316.1ZM770.476 272.54C772.383 272.54 773.85 273.42 774.876 275.18C776.05 276.94 776.636 279.36 776.636 282.44C776.636 287.72 775.39 292.267 772.896 296.08C768.79 302.387 763.363 307.3 756.616 310.82C750.016 314.34 742.096 316.1 732.856 316.1C718.776 316.1 707.85 311.92 700.076 303.56C692.303 295.053 688.416 283.613 688.416 269.24C688.416 259.12 690.543 249.733 694.796 241.08C699.05 232.28 704.916 225.313 712.396 220.18C720.023 215.047 728.603 212.48 738.136 212.48C746.643 212.48 753.463 215.047 758.596 220.18C763.73 225.167 766.296 231.987 766.296 240.64C766.296 250.76 762.63 259.487 755.296 266.82C748.11 274.007 735.79 279.727 718.336 283.98C721.856 290.727 727.796 294.1 736.156 294.1C742.17 294.1 747.083 292.707 750.896 289.92C754.856 287.133 759.403 282.44 764.536 275.84C766.296 273.64 768.276 272.54 770.476 272.54ZM734.396 234.04C728.97 234.04 724.35 237.193 720.536 243.5C716.87 249.807 715.036 257.433 715.036 266.38V266.82C723.69 264.767 730.51 261.687 735.496 257.58C740.483 253.473 742.976 248.707 742.976 243.28C742.976 240.493 742.17 238.293 740.556 236.68C739.09 234.92 737.036 234.04 734.396 234.04ZM800.365 184.1C797.139 184.1 794.572 183.367 792.665 181.9C790.759 180.433 789.805 178.087 789.805 174.86C789.805 173.54 790.025 172 790.465 170.24C792.079 163.493 793.252 157.26 793.985 151.54C794.865 145.82 795.305 139.44 795.305 132.4C795.305 125.067 796.992 119.42 800.365 115.46C803.885 111.5 808.359 109.52 813.785 109.52C819.065 109.52 823.025 110.987 825.665 113.92C828.452 116.707 829.845 120.52 829.845 125.36C829.845 130.493 828.305 137.313 825.225 145.82C822.145 154.327 818.405 162.613 814.005 170.68C811.072 176.107 808.725 179.7 806.965 181.46C805.352 183.22 803.152 184.1 800.365 184.1ZM868.418 320.94C860.791 320.94 854.924 319.18 850.818 315.66C846.858 312.14 844.878 308.18 844.878 303.78C844.878 299.967 846.271 296.667 849.058 293.88C851.844 291.093 855.951 289.7 861.378 289.7C863.284 289.7 865.484 289.92 867.978 290.36C870.618 290.653 872.598 290.873 873.918 291.02C873.771 287.207 872.891 283.613 871.278 280.24C869.811 276.867 867.904 273.64 865.558 270.56C863.211 267.333 861.011 264.547 858.958 262.2C854.411 270.853 849.864 278.04 845.318 283.76C840.918 289.48 836.078 294.907 830.798 300.04C828.158 302.68 825.371 304 822.438 304C820.091 304 818.184 303.193 816.717 301.58C815.251 299.82 814.517 297.693 814.517 295.2C814.517 292.267 815.544 289.553 817.598 287.06L820.458 283.54C828.524 273.567 834.611 265.353 838.718 258.9C841.358 254.647 843.998 249.587 846.638 243.72C849.424 237.853 853.018 229.86 857.418 219.74C860.204 213.287 865.998 210.06 874.798 210.06C878.904 210.06 881.764 210.427 883.378 211.16C884.991 211.893 885.798 213.067 885.798 214.68C885.798 215.56 885.504 216.953 884.918 218.86C884.331 220.767 883.524 222.673 882.498 224.58C879.858 229.86 878.538 234.333 878.538 238C878.538 240.2 879.271 242.62 880.738 245.26C882.351 247.9 884.771 251.2 887.998 255.16C892.691 261.32 896.211 266.6 898.558 271C901.051 275.253 902.298 279.947 902.298 285.08C902.298 291.24 900.831 297.107 897.898 302.68C895.111 308.107 891.151 312.507 886.018 315.88C880.884 319.253 875.018 320.94 868.418 320.94Z" fill="white"/>
<path d="M807.96 413.2C807.96 425.667 803.56 436.447 794.76 445.54C785.96 454.487 773.127 460.94 756.26 464.9C765.353 467.393 772.247 471.5 776.94 477.22C781.633 482.793 783.98 489.247 783.98 496.58C783.98 508.167 780.313 518.213 772.98 526.72C765.793 535.227 755.233 541.827 741.3 546.52C727.367 551.067 710.573 553.34 690.92 553.34C683.587 553.34 677.72 553.12 673.32 552.68C673.173 556.787 671.413 559.867 668.04 561.92C664.667 563.973 660.34 565 655.06 565C649.78 565 646.113 563.827 644.06 561.48C642.153 559.133 641.347 555.687 641.64 551.14C642.96 530.607 645.527 509.12 649.34 486.68C653.153 464.093 657.993 442.313 663.86 421.34C664.887 417.673 666.94 415.107 670.02 413.64C673.1 412.173 677.133 411.44 682.12 411.44C691.067 411.44 695.54 413.933 695.54 418.92C695.54 420.973 695.1 423.32 694.22 425.96C690.407 437.4 686.593 452.947 682.78 472.6C678.967 492.107 676.253 510.733 674.64 528.48C681.68 529.067 687.4 529.36 691.8 529.36C712.333 529.36 727.367 526.427 736.9 520.56C746.58 514.547 751.42 506.92 751.42 497.68C751.42 491.227 748.633 485.8 743.06 481.4C737.633 477 728.467 474.58 715.56 474.14C712.627 473.993 710.573 473.26 709.4 471.94C708.227 470.62 707.64 468.493 707.64 465.56C707.64 461.307 708.52 457.86 710.28 455.22C712.04 452.58 715.267 451.187 719.96 451.04C730.373 450.747 739.76 449.207 748.12 446.42C756.627 443.633 763.3 439.747 768.14 434.76C772.98 429.627 775.4 423.687 775.4 416.94C775.4 408.433 771.22 401.76 762.86 396.92C754.5 391.933 741.667 389.44 724.36 389.44C708.667 389.44 693.487 391.493 678.82 395.6C664.153 399.56 651.687 404.62 641.42 410.78C636.727 413.567 632.767 414.96 629.54 414.96C626.9 414.96 624.847 414.08 623.38 412.32C622.06 410.413 621.4 408.067 621.4 405.28C621.4 401.613 622.133 398.46 623.6 395.82C625.213 393.18 628.953 390.173 634.82 386.8C647.14 379.76 661.587 374.26 678.16 370.3C694.733 366.34 711.673 364.36 728.98 364.36C755.527 364.36 775.327 368.833 788.38 377.78C801.433 386.727 807.96 398.533 807.96 413.2ZM827.784 555.1C818.691 555.1 811.431 551.8 806.004 545.2C800.577 538.6 797.864 529.947 797.864 519.24C797.864 507.507 800.577 496.433 806.004 486.02C811.431 475.46 818.617 467.027 827.564 460.72C836.657 454.267 846.264 451.04 856.384 451.04C859.611 451.04 861.737 451.7 862.764 453.02C863.937 454.193 864.891 456.393 865.624 459.62C868.704 459.033 871.931 458.74 875.304 458.74C882.491 458.74 886.084 461.307 886.084 466.44C886.084 469.52 884.984 476.853 882.784 488.44C879.411 505.307 877.724 517.04 877.724 523.64C877.724 525.84 878.237 527.6 879.264 528.92C880.437 530.24 881.904 530.9 883.664 530.9C886.451 530.9 889.824 529.14 893.784 525.62C897.744 521.953 903.097 516.087 909.844 508.02C911.604 505.967 913.584 504.94 915.784 504.94C917.691 504.94 919.157 505.82 920.184 507.58C921.357 509.34 921.944 511.76 921.944 514.84C921.944 520.707 920.551 525.253 917.764 528.48C911.751 535.96 905.371 542.267 898.624 547.4C891.877 552.533 885.351 555.1 879.044 555.1C874.204 555.1 869.731 553.487 865.624 550.26C861.664 546.887 858.657 542.34 856.604 536.62C848.977 548.94 839.371 555.1 827.784 555.1ZM835.704 532.88C838.931 532.88 842.011 530.973 844.944 527.16C847.877 523.347 850.004 518.287 851.324 511.98L859.464 471.5C853.304 471.647 847.584 473.993 842.304 478.54C837.171 482.94 833.064 488.807 829.984 496.14C826.904 503.473 825.364 511.247 825.364 519.46C825.364 524.007 826.244 527.38 828.004 529.58C829.911 531.78 832.477 532.88 835.704 532.88ZM1031.22 504.94C1033.13 504.94 1034.6 505.82 1035.62 507.58C1036.8 509.34 1037.38 511.76 1037.38 514.84C1037.38 520.707 1035.99 525.253 1033.2 528.48C1026.6 536.547 1019.93 543 1013.18 547.84C1006.44 552.68 998.444 555.1 989.204 555.1C977.911 555.1 968.817 551.873 961.924 545.42C955.031 538.967 951.584 530.387 951.584 519.68C951.584 513.96 954.517 509.853 960.384 507.36C966.837 504.573 971.457 501.64 974.244 498.56C977.031 495.333 978.424 491.447 978.424 486.9C978.424 484.26 977.837 482.28 976.664 480.96C975.637 479.64 974.317 478.98 972.704 478.98C968.744 478.98 964.344 481.84 959.504 487.56C954.811 493.28 950.411 500.687 946.304 509.78C942.197 518.727 938.971 527.967 936.624 537.5C935.011 544.393 933.104 549.087 930.904 551.58C928.851 553.927 925.551 555.1 921.004 555.1C916.457 555.1 913.084 553.487 910.884 550.26C908.831 546.887 907.437 541.753 906.704 534.86C905.971 527.967 905.604 517.847 905.604 504.5C905.604 481.913 907.877 458.373 912.424 433.88C917.117 409.387 923.937 388.853 932.884 372.28C941.977 355.56 952.831 347.2 965.444 347.2C972.191 347.2 977.617 350.133 981.724 356C985.977 361.72 988.104 369.2 988.104 378.44C988.104 393.253 983.777 408.653 975.124 424.64C966.471 440.48 952.391 459.033 932.884 480.3C932.444 487.927 932.224 495.773 932.224 503.84C939.264 485.507 947.331 472.233 956.424 464.02C965.517 455.66 974.024 451.48 981.944 451.48C989.277 451.48 995.144 453.973 999.544 458.96C1004.09 463.947 1006.36 470.107 1006.36 477.44C1006.36 485.507 1004.31 492.913 1000.2 499.66C996.097 506.407 989.057 512.42 979.084 517.7C979.671 521.66 981.431 524.887 984.364 527.38C987.444 529.727 991.111 530.9 995.364 530.9C999.911 530.9 1004.31 529.14 1008.56 525.62C1012.82 522.1 1018.39 516.233 1025.28 508.02C1027.04 505.967 1029.02 504.94 1031.22 504.94ZM960.824 368.98C958.184 368.98 955.251 372.793 952.024 380.42C948.797 387.9 945.644 398.093 942.564 411C939.631 423.76 937.211 437.693 935.304 452.8C944.397 442.093 951.877 430.433 957.744 417.82C963.757 405.207 966.764 393.767 966.764 383.5C966.764 378.807 966.251 375.213 965.224 372.72C964.197 370.227 962.731 368.98 960.824 368.98ZM1117.77 504.94C1119.68 504.94 1121.14 505.82 1122.17 507.58C1123.34 509.34 1123.93 511.76 1123.93 514.84C1123.93 520.707 1122.54 525.253 1119.75 528.48C1114.32 535.08 1106.62 541.167 1096.65 546.74C1086.82 552.313 1076.26 555.1 1064.97 555.1C1049.57 555.1 1037.62 550.92 1029.11 542.56C1020.6 534.2 1016.35 522.76 1016.35 508.24C1016.35 498.12 1018.48 488.733 1022.73 480.08C1026.98 471.28 1032.85 464.313 1040.33 459.18C1047.96 454.047 1056.54 451.48 1066.07 451.48C1074.58 451.48 1081.4 454.047 1086.53 459.18C1091.66 464.167 1094.23 470.987 1094.23 479.64C1094.23 489.76 1090.56 498.487 1083.23 505.82C1076.04 513.007 1063.8 518.727 1046.49 522.98C1050.16 529.727 1057.12 533.1 1067.39 533.1C1073.99 533.1 1081.47 530.827 1089.83 526.28C1098.34 521.587 1105.67 515.5 1111.83 508.02C1113.59 505.967 1115.57 504.94 1117.77 504.94ZM1062.33 473.04C1056.9 473.04 1052.28 476.193 1048.47 482.5C1044.8 488.807 1042.97 496.433 1042.97 505.38V505.82C1051.62 503.767 1058.44 500.687 1063.43 496.58C1068.42 492.473 1070.91 487.707 1070.91 482.28C1070.91 479.493 1070.1 477.293 1068.49 475.68C1067.02 473.92 1064.97 473.04 1062.33 473.04ZM1121.64 555.1C1116.06 555.1 1112.1 552.167 1109.76 546.3C1107.56 540.433 1106.46 531.047 1106.46 518.14C1106.46 499.073 1109.17 480.96 1114.6 463.8C1115.92 459.547 1118.04 456.467 1120.98 454.56C1124.06 452.507 1128.31 451.48 1133.74 451.48C1136.67 451.48 1138.72 451.847 1139.9 452.58C1141.07 453.313 1141.66 454.707 1141.66 456.76C1141.66 459.107 1140.56 464.387 1138.36 472.6C1136.89 478.467 1135.72 483.6 1134.84 488C1133.96 492.4 1133.22 497.827 1132.64 504.28C1137.48 491.667 1142.9 481.4 1148.92 473.48C1154.93 465.56 1160.8 459.913 1166.52 456.54C1172.38 453.167 1177.74 451.48 1182.58 451.48C1192.11 451.48 1196.88 456.247 1196.88 465.78C1196.88 467.687 1196.22 472.307 1194.9 479.64C1193.72 485.507 1193.14 489.173 1193.14 490.64C1193.14 495.773 1194.97 498.34 1198.64 498.34C1202.74 498.34 1208.02 495.113 1214.48 488.66C1216.38 486.753 1218.36 485.8 1220.42 485.8C1222.32 485.8 1223.79 486.68 1224.82 488.44C1225.99 490.053 1226.58 492.253 1226.58 495.04C1226.58 500.467 1225.11 504.72 1222.18 507.8C1218.07 512.053 1213.23 515.72 1207.66 518.8C1202.23 521.733 1196.44 523.2 1190.28 523.2C1182.5 523.2 1176.56 521.22 1172.46 517.26C1168.5 513.3 1166.52 507.947 1166.52 501.2C1166.52 499 1166.74 496.8 1167.18 494.6C1167.47 491.667 1167.62 489.687 1167.62 488.66C1167.62 486.313 1166.81 485.14 1165.2 485.14C1163 485.14 1160.06 487.633 1156.4 492.62C1152.88 497.46 1149.36 503.913 1145.84 511.98C1142.32 520.047 1139.46 528.553 1137.26 537.5C1135.64 544.393 1133.74 549.087 1131.54 551.58C1129.48 553.927 1126.18 555.1 1121.64 555.1ZM1283.13 451.48C1286.51 451.48 1288.85 451.92 1290.17 452.8C1291.49 453.68 1292.15 455.147 1292.15 457.2C1292.15 460.72 1290.25 473.26 1286.43 494.82C1283.06 515.5 1281.08 527.747 1280.49 531.56C1275.07 569.253 1267.59 599.1 1258.05 621.1C1248.52 643.1 1235.83 654.1 1219.99 654.1C1212.51 654.1 1206.43 651.753 1201.73 647.06C1197.04 642.513 1194.69 636.5 1194.69 629.02C1194.69 622.127 1196.23 615.087 1199.31 607.9C1202.54 600.713 1208.41 592.427 1216.91 583.04C1225.57 573.8 1237.74 563.167 1253.43 551.14L1254.09 546.08C1255.12 540.653 1256.29 532.88 1257.61 522.76C1254.68 533.32 1250.57 541.387 1245.29 546.96C1240.01 552.387 1234.44 555.1 1228.57 555.1C1221.97 555.1 1216.55 552.093 1212.29 546.08C1208.19 539.92 1206.13 532.293 1206.13 523.2C1206.13 512.2 1206.87 502.153 1208.33 493.06C1209.8 483.82 1212.22 474.067 1215.59 463.8C1217.06 459.4 1219.11 456.247 1221.75 454.34C1224.39 452.433 1228.57 451.48 1234.29 451.48C1237.52 451.48 1239.72 451.993 1240.89 453.02C1242.21 454.047 1242.87 455.587 1242.87 457.64C1242.87 458.813 1242.07 462.773 1240.45 469.52C1238.99 474.947 1237.81 479.86 1236.93 484.26C1235.76 490.273 1234.73 496.067 1233.85 501.64C1232.97 507.067 1232.53 511.54 1232.53 515.06C1232.53 520.633 1234.07 523.42 1237.15 523.42C1239.35 523.42 1242.07 521.22 1245.29 516.82C1248.67 512.42 1252.19 505.747 1255.85 496.8C1259.67 487.853 1263.33 476.853 1266.85 463.8C1268.03 459.4 1269.79 456.247 1272.13 454.34C1274.63 452.433 1278.29 451.48 1283.13 451.48ZM1222.41 632.76C1226.08 632.76 1230.19 628.507 1234.73 620C1239.28 611.493 1243.83 597.34 1248.37 577.54C1237.08 587.073 1228.87 595.727 1223.73 603.5C1218.75 611.42 1216.25 618.313 1216.25 624.18C1216.25 626.673 1216.69 628.727 1217.57 630.34C1218.6 631.953 1220.21 632.76 1222.41 632.76Z" fill="white"/>
</svg>
